<?xml version="1.0" standalone="no"?>
<!DOCTYPE svg PUBLIC "-//W3C//DTD SVG 20010904//EN"
 "http://www.w3.org/TR/2001/REC-SVG-20010904/DTD/svg10.dtd">
<svg version="1.0" xmlns="http://www.w3.org/2000/svg"
 width="289.000000pt" height="289.000000pt" viewBox="0 0 289.000000 289.000000"
 preserveAspectRatio="xMidYMid meet">
<metadata>
Created by potrace 1.11, written by Peter Selinger 2001-2013
</metadata>
<g transform="translate(0.000000,289.000000) scale(0.100000,-0.100000)"
fill="#000000" stroke="none">
<path d="M4 2318 c2 -315 5 -586 5 -603 1 -16 -1 -58 -5 -93 -4 -49 -2 -67 9
-80 9 -9 25 -40 36 -69 21 -55 19 -79 -13 -141 -9 -17 -16 -33 -16 -36 0 -3
18 -17 41 -31 47 -31 62 -61 80 -168 11 -64 11 -86 0 -125 -7 -26 -17 -67 -22
-91 -5 -24 -19 -59 -31 -78 -19 -33 -20 -40 -10 -97 6 -33 14 -93 18 -133 7
-84 -9 -129 -62 -170 l-34 -25 0 -189 0 -189 432 2 433 3 8 55 c5 34 4 72 -3
99 -9 37 -8 49 10 86 12 24 38 56 58 72 69 52 203 181 240 232 20 27 49 57 63
65 74 43 192 -1 315 -117 69 -66 76 -76 81 -118 7 -63 -22 -139 -98 -256 -32
-50 -62 -99 -65 -107 -6 -14 49 -16 564 -16 l570 0 -5 40 c-9 66 43 102 97 68
29 -19 62 5 130 93 l60 78 0 650 c0 545 -3 655 -15 678 -26 50 -65 168 -75
223 -5 30 -14 82 -20 116 -16 97 -13 127 19 171 16 22 43 50 60 62 l31 22 0
345 0 344 -247 -2 -248 -3 -9 -47 c-8 -38 -5 -61 14 -124 19 -66 22 -91 17
-164 -9 -118 -34 -192 -103 -300 -103 -163 -208 -256 -313 -279 -105 -22 -165
24 -212 167 -36 109 -79 165 -139 183 -84 25 -120 -10 -96 -95 18 -60 20 -102
7 -110 -4 -3 -11 -19 -14 -35 -16 -76 -76 -82 -150 -13 -29 27 -81 70 -116 97
-64 48 -100 104 -101 153 0 34 -18 62 -40 62 -10 0 -31 10 -46 23 -38 33 -47
125 -16 166 11 15 17 33 13 39 -4 6 -36 25 -71 41 -72 32 -97 53 -128 103 -12
19 -32 40 -46 47 -23 13 -29 10 -86 -32 -34 -26 -77 -49 -96 -53 -57 -11 -78
6 -97 75 -9 33 -17 70 -17 81 0 20 -6 20 -275 20 l-275 0 4 -572z m969 288 c9
-7 22 -27 28 -44 16 -46 -6 -164 -37 -201 -20 -24 -23 -35 -18 -78 5 -39 2
-58 -15 -91 -30 -58 -62 -72 -168 -72 -97 0 -122 10 -148 60 -19 36 -20 140
-1 183 15 37 99 114 134 123 12 4 22 14 22 23 0 23 33 52 95 85 55 29 81 32
108 12z m1463 -721 c5 -12 -9 -65 -33 -131 -2 -6 26 -28 63 -48 l67 -37 24 30
c24 30 53 41 53 21 0 -6 -6 -26 -14 -44 -8 -20 -10 -39 -5 -47 16 -25 9 -32
-16 -15 -15 10 -57 19 -105 23 l-80 6 0 -39 c0 -53 -10 -84 -25 -84 -12 0 -48
78 -56 124 -2 11 -28 34 -59 52 -73 42 -98 70 -84 92 15 24 47 26 102 7 46
-15 47 -15 65 7 77 100 92 112 103 83z m-816 -177 c127 -164 308 -446 384
-596 23 -45 30 -52 56 -52 36 0 55 30 46 73 -10 50 -31 72 -98 104 -95 46
-138 107 -108 153 7 11 8 5 4 -18 -6 -29 -2 -37 33 -70 21 -20 62 -45 91 -55
54 -20 99 -62 106 -100 3 -12 12 -63 21 -114 19 -103 30 -118 103 -145 45 -16
22 -17 -554 -15 l-601 2 -69 -124 c-78 -141 -99 -171 -120 -171 -27 0 -14 30
73 172 55 89 83 143 75 146 -24 8 -127 80 -151 106 l-24 26 54 0 55 0 279 375
c154 206 282 374 285 374 3 0 30 -32 60 -71z m1066 -99 c10 -17 -13 -36 -27
-22 -12 12 -4 33 11 33 5 0 12 -5 16 -11z m90 -70 c7 -12 -15 -31 -28 -23 -4
3 -8 12 -8 20 0 17 26 19 36 3z m74 -79 c0 -21 -24 -28 -35 -10 -8 14 3 30 21
30 8 0 14 -9 14 -20z m-2435 -456 c23 -9 42 -51 54 -121 15 -81 1 -136 -48
-196 -31 -37 -39 -57 -45 -103 -3 -31 -20 -88 -37 -127 -17 -38 -35 -99 -40
-134 -14 -101 -37 -133 -94 -133 -57 0 -103 117 -92 236 9 94 135 439 196 534
29 46 63 60 106 44z"/>
<path d="M866 2535 c-26 -15 -43 -35 -50 -56 -8 -24 -19 -35 -41 -41 -46 -12
-113 -80 -121 -123 -9 -47 1 -103 22 -126 22 -25 148 -27 181 -4 34 24 46 73
30 126 -15 48 -12 69 7 69 29 0 47 38 53 109 6 70 6 71 -18 70 -13 0 -42 -11
-63 -24z"/>
<path d="M1282 1387 l-263 -352 68 -3 c48 -2 70 1 76 10 5 7 28 44 51 81 l43
68 34 -42 c26 -33 29 -41 14 -35 -42 18 -59 12 -82 -29 -12 -22 -23 -43 -23
-47 0 -5 70 -8 155 -8 l155 0 0 40 c0 33 3 40 20 40 20 0 20 7 20 315 0 173
-1 315 -2 315 -2 -1 -121 -159 -266 -353z"/>
<path d="M1570 1425 c0 -273 2 -315 15 -315 11 0 15 -11 15 -40 l0 -40 205 0
c205 0 205 0 205 22 0 25 -109 220 -208 373 -63 98 -220 315 -228 315 -2 0 -4
-142 -4 -315z"/>
<path d="M352 928 c-54 -89 -173 -407 -186 -501 -8 -53 7 -144 29 -173 21 -29
36 -6 51 80 7 41 26 105 42 143 17 37 33 94 37 126 6 46 15 67 42 100 20 23
39 52 44 65 20 52 1 180 -27 189 -7 2 -21 -11 -32 -29z"/>
<path d="M610 2863 c0 -31 18 -103 26 -103 19 0 78 34 111 63 21 20 50 38 63
42 34 8 83 -24 123 -81 24 -34 50 -55 102 -81 85 -43 102 -57 121 -102 19 -44
18 -49 -7 -53 -31 -4 -43 -29 -35 -72 6 -30 12 -38 37 -43 38 -7 77 -53 84
-101 10 -58 21 -78 61 -109 20 -15 70 -57 111 -92 59 -50 77 -61 84 -50 5 8 9
21 9 30 0 8 5 20 10 25 8 8 6 29 -6 71 -31 113 -3 164 94 171 112 7 190 -63
238 -214 34 -106 66 -144 121 -144 92 1 197 86 304 248 75 112 84 137 100 258
10 69 9 89 -7 145 -11 37 -19 96 -19 142 l0 77 -647 0 c-569 0 -648 -2 -648
-15 0 -8 -7 -15 -15 -15 -9 0 -18 7 -21 15 -5 13 -37 15 -200 15 l-194 0 0
-27z m1248 -26 c2 -10 -3 -17 -12 -17 -18 0 -29 16 -21 31 9 14 29 6 33 -14z
m-662 -28 c10 -17 -13 -36 -27 -22 -12 12 -4 33 11 33 5 0 12 -5 16 -11z m109
-10 c0 -7 -8 -15 -17 -17 -18 -3 -25 18 -11 32 10 10 28 1 28 -15z m-215 -35
c0 -17 -26 -19 -36 -3 -7 12 15 31 28 23 4 -3 8 -12 8 -20z m860 13 c0 -19
-10 -27 -26 -20 -21 8 -17 33 6 33 11 0 20 -6 20 -13z m-550 -31 c0 -8 -5 -18
-11 -22 -14 -8 -33 11 -25 25 10 16 36 13 36 -3z m646 -17 c7 -12 -15 -31 -28
-23 -4 3 -8 12 -8 20 0 17 26 19 36 3z m99 -49 c0 -8 -8 -16 -17 -18 -13 -2
-18 3 -18 18 0 15 5 20 18 18 9 -2 17 -10 17 -18z m103 -33 c2 -12 -3 -17 -17
-17 -12 0 -21 6 -21 13 0 31 32 34 38 4z m-808 -7 c0 -21 -24 -28 -35 -10 -8
14 3 30 21 30 8 0 14 -9 14 -20z m908 -23 c2 -10 -3 -17 -12 -17 -18 0 -29 16
-21 31 9 14 29 6 33 -14z m-100 -44 c-2 -10 -10 -18 -18 -18 -8 0 -16 8 -18
18 -2 12 3 17 18 17 15 0 20 -5 18 -17z m-845 -27 c7 -16 -1 -26 -20 -26 -7 0
-13 9 -13 20 0 23 25 27 33 6z m757 -46 c0 -21 -24 -28 -35 -10 -8 14 3 30 21
30 8 0 14 -9 14 -20z m-574 -31 c10 -17 -13 -36 -27 -22 -12 12 -4 33 11 33 5
0 12 -5 16 -11z m109 -10 c0 -7 -8 -15 -17 -17 -18 -3 -25 18 -11 32 10 10 28
1 28 -15z m-350 -19 c0 -22 -29 -18 -33 3 -3 14 1 18 15 15 10 -2 18 -10 18
-18z m139 -11 c-8 -14 -34 -11 -34 4 0 8 3 17 7 20 9 9 34 -13 27 -24z m306
-13 c0 -20 -19 -31 -32 -18 -6 6 -7 15 -4 21 10 16 36 13 36 -3z m-400 -22 c0
-8 -9 -14 -20 -14 -19 0 -27 19 -14 33 10 9 34 -4 34 -19z m710 13 c0 -8 -3
-17 -7 -20 -9 -9 -34 13 -27 24 8 14 34 11 34 -4z m-810 -60 c0 -8 -3 -17 -7
-20 -9 -9 -34 13 -27 24 8 14 34 11 34 -4z m580 -1 c0 -20 -19 -31 -32 -18 -6
6 -7 15 -4 21 10 16 36 13 36 -3z m194 -41 c3 -9 -1 -18 -10 -22 -19 -7 -28 2
-21 22 8 19 23 19 31 0z m-129 -46 c0 -7 -8 -15 -17 -17 -18 -3 -25 18 -11 32
10 10 28 1 28 -15z m109 -80 c-8 -14 -34 -11 -34 4 0 8 3 17 7 20 9 9 34 -13
27 -24z m-56 -12 c2 -10 -3 -17 -12 -17 -18 0 -29 16 -21 31 9 14 29 6 33 -14z
m52 -91 c0 -20 -19 -31 -32 -18 -6 6 -7 15 -4 21 10 16 36 13 36 -3z"/>
<path d="M2852 2095 c-29 -32 -33 -43 -28 -74 3 -20 10 -70 15 -111 6 -41 18
-100 28 -130 l18 -55 3 103 c1 56 1 148 0 204 l-3 101 -33 -38z"/>
<path d="M2 1415 c0 -16 2 -22 5 -12 2 9 2 23 0 30 -3 6 -5 -1 -5 -18z"/>
<path d="M0 844 c0 -363 1 -395 16 -383 36 30 37 97 3 255 -11 48 -10 55 14
100 14 27 35 86 46 131 20 77 20 87 6 158 -16 88 -16 87 -55 115 l-30 21 0
-397z"/>
<path d="M1269 571 c-9 -6 -38 -40 -64 -76 -27 -36 -51 -65 -55 -65 -3 0 -33
-26 -66 -57 -32 -32 -81 -76 -109 -99 l-49 -41 -1 -116 0 -117 241 0 241 0 12
27 c7 14 38 67 71 117 62 97 100 180 100 222 0 19 -17 43 -58 83 -101 97 -216
151 -263 122z"/>
<path d="M2836 124 c-27 -31 -63 -63 -81 -71 -30 -14 -36 -14 -65 1 -40 20
-40 20 -40 1 0 -31 48 -48 140 -49 48 -1 91 2 95 5 3 4 5 43 3 87 l-3 81 -49
-55z"/>
</g>
</svg>
