<?xml version="1.0" encoding="UTF-8" standalone="no"?>
<!-- Created with Inkscape (http://www.inkscape.org/) -->

<svg
   xmlns:dc="http://purl.org/dc/elements/1.1/"
   xmlns:cc="http://creativecommons.org/ns#"
   xmlns:rdf="http://www.w3.org/1999/02/22-rdf-syntax-ns#"
   xmlns:svg="http://www.w3.org/2000/svg"
   xmlns="http://www.w3.org/2000/svg"
   xmlns:sodipodi="http://sodipodi.sourceforge.net/DTD/sodipodi-0.dtd"
   xmlns:inkscape="http://www.inkscape.org/namespaces/inkscape"
   width="50mm"
   height="50mm"
   viewBox="0 0 50 50"
   version="1.1"
   id="svg8"
   inkscape:version="0.92.3 (2405546, 2018-03-11)"
   sodipodi:docname="harbour_installation.svg">
  <defs
     id="defs2">
    <inkscape:path-effect
       effect="bspline"
       id="path-effect904"
       is_visible="true"
       weight="33.333333"
       steps="2"
       helper_size="0"
       apply_no_weight="true"
       apply_with_weight="true"
       only_selected="false" />
    <inkscape:path-effect
       effect="bspline"
       id="path-effect900"
       is_visible="true"
       weight="33.333333"
       steps="2"
       helper_size="0"
       apply_no_weight="true"
       apply_with_weight="true"
       only_selected="false" />
    <inkscape:path-effect
       effect="bspline"
       id="path-effect896"
       is_visible="true"
       weight="33.333333"
       steps="2"
       helper_size="0"
       apply_no_weight="true"
       apply_with_weight="true"
       only_selected="false" />
    <inkscape:path-effect
       effect="bspline"
       id="path-effect892"
       is_visible="true"
       weight="33.333333"
       steps="2"
       helper_size="0"
       apply_no_weight="true"
       apply_with_weight="true"
       only_selected="false" />
    <inkscape:path-effect
       effect="bspline"
       id="path-effect886"
       is_visible="true"
       weight="33.333333"
       steps="2"
       helper_size="0"
       apply_no_weight="true"
       apply_with_weight="true"
       only_selected="false" />
    <inkscape:path-effect
       effect="bspline"
       id="path-effect880"
       is_visible="true"
       weight="33.333333"
       steps="2"
       helper_size="0"
       apply_no_weight="true"
       apply_with_weight="true"
       only_selected="false" />
    <inkscape:path-effect
       effect="bspline"
       id="path-effect835"
       is_visible="true"
       weight="33.333333"
       steps="2"
       helper_size="0"
       apply_no_weight="true"
       apply_with_weight="true"
       only_selected="false" />
    <inkscape:path-effect
       effect="bspline"
       id="path-effect835-0"
       is_visible="true"
       weight="33.333333"
       steps="2"
       helper_size="0"
       apply_no_weight="true"
       apply_with_weight="true"
       only_selected="false" />
    <inkscape:path-effect
       effect="bspline"
       id="path-effect886-6"
       is_visible="true"
       weight="33.333333"
       steps="2"
       helper_size="0"
       apply_no_weight="true"
       apply_with_weight="true"
       only_selected="false" />
    <inkscape:path-effect
       effect="bspline"
       id="path-effect880-4"
       is_visible="true"
       weight="33.333333"
       steps="2"
       helper_size="0"
       apply_no_weight="true"
       apply_with_weight="true"
       only_selected="false" />
  </defs>
  <sodipodi:namedview
     id="base"
     pagecolor="#ffffff"
     bordercolor="#666666"
     borderopacity="1.0"
     inkscape:pageopacity="0.0"
     inkscape:pageshadow="2"
     inkscape:zoom="2.8"
     inkscape:cx="-115.75762"
     inkscape:cy="73.056045"
     inkscape:document-units="mm"
     inkscape:current-layer="layer2"
     showgrid="false"
     inkscape:window-width="1920"
     inkscape:window-height="1017"
     inkscape:window-x="-8"
     inkscape:window-y="-8"
     inkscape:window-maximized="1" />
  <metadata
     id="metadata5">
    <rdf:RDF>
      <cc:Work
         rdf:about="">
        <dc:format>image/svg+xml</dc:format>
        <dc:type
           rdf:resource="http://purl.org/dc/dcmitype/StillImage" />
        <dc:title />
      </cc:Work>
    </rdf:RDF>
  </metadata>
  <g
     inkscape:groupmode="layer"
     id="layer2"
     inkscape:label="variable"
     style="display:inline"
     transform="translate(0,-247)">
    <path
       style="display:inline;fill:#afafaf;fill-opacity:1;stroke:#000000;stroke-width:1.5;stroke-linecap:butt;stroke-linejoin:miter;stroke-miterlimit:4;stroke-dasharray:none;stroke-opacity:1"
       d="m 2.1418521,281.67612 c 0.015728,0.0786 0.047225,0.23613 0.1575828,0.55933 0.1103577,0.3232 0.2990983,0.81078 1.5358507,1.31492 1.2367523,0.50414 3.5196991,1.02371 6.6221094,1.4489 3.102411,0.4252 7.024248,0.75596 9.937759,0.97644 2.913512,0.22048 4.81926,0.33073 7.394023,0.32285 2.574763,-0.008 5.819483,-0.13389 7.961968,-0.35224 2.142485,-0.21836 3.212217,-0.53768 4.149111,-1.26207 0.936893,-0.72439 1.756089,-1.85866 2.472603,-2.77987 0.716514,-0.92122 1.330885,-1.63011 1.724485,-2.40165 0.3936,-0.77155 0.566909,-1.60658 0.559011,-2.3466 -0.0079,-0.74002 -0.196956,-1.38597 -0.3623,-1.96861 -0.165344,-0.58264 -0.307125,-1.1025 -0.433098,-1.55128 -0.125974,-0.44878 -0.236256,-0.82689 -0.291352,-1.18908 -0.0551,-0.3622 -0.0551,-0.70883 0.02765,-0.96469 0.08275,-0.25586 0.263994,-0.4371 0.279691,-0.67303 0.0157,-0.23593 -0.126259,-0.53562 -0.370168,-0.71665 -0.243909,-0.18102 -0.590525,-0.24405 -0.8662,-0.11813 -0.275676,0.12592 -0.480289,0.44071 -0.574878,0.83469 -0.09459,0.39398 -0.07886,0.86599 0.01566,1.28351 0.09452,0.41751 0.26766,0.77954 0.448805,1.25208 0.181145,0.47254 0.370074,1.05507 0.472468,1.66145 0.102395,0.60638 0.11814,1.23616 -0.622206,1.77967 -0.740347,0.54352 -2.235893,1.00005 -3.724344,1.29933 -1.488452,0.29928 -2.968548,0.44099 -6.528383,0.4725 -3.559834,0.0315 -9.196885,-0.0472 -12.669577,-0.11809 -3.472692,-0.0709 -4.779797,-0.13386 -6.016208,-0.19686 -1.23641,-0.063 -2.401612,-0.12599 -3.110489,-0.34655 -0.7088778,-0.22057 -0.9608052,-0.59846 -1.1340303,-1.22843 -0.1732251,-0.62998 -0.2677349,-1.51207 -0.5825357,-2.01588 -0.3148009,-0.50381 -0.8504104,-0.62984 -1.2284714,-0.34641 -0.3780609,0.28343 -0.5984665,0.97613 -0.6221252,1.62205 -0.023659,0.64592 0.1494986,1.2441 0.3527749,1.78446 0.2032762,0.54036 0.4424284,1.0346 0.4975879,1.66456 0.05516,0.62995 -0.070805,1.40148 -0.2439548,1.85041 -0.1731499,0.44893 -0.3935488,0.57488 -0.8429451,0.54336 -0.4493963,-0.0315 -1.1256418,-0.22023 -1.8974014,-0.27538 -0.7717596,-0.0552 -1.6377283,0.0236 -2.0709693,0.063 -0.4332409,0.0394 -0.4332389,0.0394 -0.4175105,0.11803 z"
       id="path878-3"
       inkscape:connector-curvature="0"
       inkscape:path-effect="#path-effect880-4"
       inkscape:original-d="m 2.1261237,281.59747 c 0.03176,0.15723 0.06326,0.31472 0.09449,0.47247 0.189497,0.48859 0.37824,0.97617 0.566964,1.46466 2.284531,0.5196 4.567477,1.03917 6.850818,1.55915 3.9214343,0.33044 7.8432713,0.66119 11.7645093,0.99219 1.905777,0.10997 3.811525,0.22022 5.71689,0.33073 3.244135,-0.12624 6.488855,-0.25225 9.732884,-0.37798 1.039611,-0.31522 2.110631,-0.63023 3.165551,-0.94494 0.818968,-1.13385 1.638163,-2.26812 2.456845,-3.40178 0.614317,-0.70879 1.228688,-1.41768 1.842635,-2.12612 0.173434,-0.83463 0.346744,-1.66966 0.519718,-2.50409 -0.188656,-0.64574 -0.377714,-1.29169 -0.566965,-1.93713 -0.141438,-0.51984 -0.283218,-1.0397 -0.425225,-1.55915 -0.10994,-0.37811 -0.220221,-0.75622 -0.330729,-1.13393 2.64e-4,-0.34659 2.64e-4,-0.69322 0,-1.03944 0.173373,-0.15763 0.346744,-0.34674 0.519718,-0.51971 -0.141261,-0.29904 -0.283218,-0.59873 -0.425222,-0.8977 -0.346083,-0.0632 -0.692693,-0.12625 -1.039434,-0.18899 -0.204597,0.31491 -0.40921,0.6297 -0.614212,0.94494 0.01603,0.47267 0.03176,0.94468 0.04725,1.41742 0.173596,0.36215 0.346739,0.72418 0.519713,1.08668 0.189312,0.58263 0.378243,1.16516 0.566965,1.74814 0.01601,0.62987 0.03176,1.25965 0.04725,1.88988 -1.496502,0.45664 -2.992046,0.91318 -4.488469,1.37016 -1.480452,0.14151 -2.960548,0.28322 -4.441218,0.42522 -5.638974,-0.079 -11.276024,-0.15775 -16.914435,-0.23623 -1.306962,-0.0633 -2.614069,-0.12626 -3.921502,-0.18899 -1.165385,-0.0633 -2.330588,-0.12626 -3.4962803,-0.18899 -0.251773,-0.37832 -0.503703,-0.75621 -0.755952,-1.13393 -0.09421,-0.88206 -0.188723,-1.76415 -0.283482,-2.64583 -0.53506,-0.12622 -1.070668,-0.25225 -1.606399,-0.37797 -0.2203,0.69294 -0.440707,1.38564 -0.661458,2.07886 0.173583,0.59848 0.346743,1.19666 0.519717,1.79539 0.220815,0.4881 0.472735,0.97617 0.708706,1.46466 -0.125757,0.77161 -0.25172,1.54314 -0.377977,2.3151 -0.220307,0.12578 -0.440708,0.25172 -0.661458,0.37798 -0.677905,-0.18952 -1.35415,-0.37824 -2.031622,-0.56696 -0.866157,0.0785 -1.732126,0.15722 -2.598586,0.23623 z" />
    <path
       style="display:inline;fill:#afafaf;fill-opacity:1;stroke:#000000;stroke-width:1.5;stroke-linecap:butt;stroke-linejoin:miter;stroke-miterlimit:4;stroke-dasharray:none;stroke-opacity:1"
       d="m 39.553702,277.75474 c -0.03931,-0.0157 -0.118056,-0.0472 -0.930521,-0.70983 -0.812465,-0.66259 -2.353181,-1.95177 -4.014648,-2.88095 -1.661468,-0.92918 -3.441076,-1.49613 -4.693144,-1.87412 -1.252069,-0.37799 -1.976461,-0.56696 -2.488307,-0.66934 -0.511847,-0.10238 -0.810999,-0.11811 -1.677812,-0.24419 -0.866812,-0.12608 -2.298774,-0.36213 -3.629622,-0.43303 -1.330848,-0.0709 -2.559091,0.0236 -3.535601,0.29915 -0.97651,0.27558 -1.700793,0.73219 -1.968662,1.39383 -0.267869,0.66165 -0.07896,1.52747 0.499622,2.4057 0.578584,0.87822 1.563336,1.78356 2.169676,2.33478 0.60634,0.55122 0.842575,0.75595 0.803345,0.86619 -0.03923,0.11023 -0.354233,0.126 -0.976832,-0.1577 -0.622599,-0.2837 -1.550973,-0.8659 -2.488132,-1.9212 -0.93716,-1.0553 -1.88203,-2.58284 -2.52773,-4.14202 -0.6457,-1.55917 -0.992194,-3.14989 -1.078784,-4.5909 -0.08659,-1.441 0.08667,-2.73258 0.480386,-3.99237 0.393715,-1.25979 1.008065,-2.48849 1.409664,-3.24441 0.4016,-0.75591 0.590634,-1.03946 5.35759,-1.70809 4.766956,-0.66863 14.13194,-1.72495 18.801381,-2.07156 4.669441,-0.3466 4.65369,0.0156 4.228284,0.2284 -0.425406,0.21276 -1.259467,0.27571 -2.157372,1.10266 -0.897906,0.82695 -1.858269,2.41706 -2.590686,3.95273 -0.732417,1.53567 -1.236288,3.01579 -1.519823,4.37823 -0.283535,1.36244 -0.346517,2.60635 -0.259898,3.85069 0.08662,1.24435 0.322801,2.48824 0.700815,3.59868 0.378014,1.11045 0.897641,2.08672 1.275631,2.77183 0.377989,0.68511 0.614204,1.0788 0.732345,1.2757 0.118142,0.1969 0.118145,0.19686 0.07883,0.18114 z"
       id="path884-3"
       inkscape:connector-curvature="0"
       inkscape:path-effect="#path-effect886-6"
       inkscape:original-d="m 39.593012,277.77046 c -0.07848,-0.0318 -0.157226,-0.0633 -0.236236,-0.0945 -1.54582,-1.29393 -3.086538,-2.5831 -4.630207,-3.87426 -1.779402,-0.56724 -3.559011,-1.13419 -5.338913,-1.70089 -0.724255,-0.18927 -1.448645,-0.37825 -2.173363,-0.56697 -0.299043,-0.016 -0.598197,-0.0317 -0.897693,-0.0472 -1.434093,-0.23671 -2.866055,-0.47276 -4.299479,-0.70875 -1.228343,0.0942 -2.456582,0.18873 -3.685268,0.28348 -0.724357,0.45657 -1.448644,0.91318 -2.173363,1.37017 0.189333,0.8663 0.378241,1.73212 0.566964,2.59858 0.961173,0.89764 1.953142,1.79513 2.929315,2.69309 0.236496,0.20447 0.472735,0.4092 0.708705,0.6142 -0.314688,0.0155 -0.629695,0.0312 -0.944939,0.0473 -0.929745,-0.58349 -1.858119,-1.16569 -2.787575,-1.74814 -0.944748,-1.52803 -1.889617,-3.05557 -2.834821,-4.58296 -0.346197,-1.59084 -0.692693,-3.18156 -1.039436,-4.77195 0.173482,-1.29152 0.346743,-2.5831 0.519717,-3.87425 0.614336,-1.22841 1.228688,-2.45711 1.842634,-3.68527 0.189205,-0.28368 0.378242,-0.56723 0.566965,-0.85045 9.345101,-1.05431 18.710085,-2.11063 28.06473,-3.16555 -0.01548,0.36195 -0.03123,0.72419 -0.04725,1.08668 -0.835067,0.0628 -1.669129,0.12573 -2.504093,0.18899 -0.96075,1.59093 -1.921113,3.18104 -2.882067,4.77195 -0.503803,1.48043 -1.007673,2.96055 -1.511906,4.44122 -0.06274,1.24417 -0.125726,2.48808 -0.188985,3.73252 0.23655,1.24418 0.472733,2.48807 0.708704,3.73251 0.520068,0.97634 1.039699,1.95261 1.55915,2.92932 0.236524,0.39349 0.472736,0.78718 0.708707,1.18117 z" />
  </g>
  <g
     inkscape:groupmode="layer"
     id="layer3"
     inkscape:label="fixed"
     style="display:inline"
     transform="translate(0,-247)">
    <path
       style="fill:none;stroke:#000000;stroke-width:1.5;stroke-linecap:butt;stroke-linejoin:miter;stroke-miterlimit:4;stroke-dasharray:none;stroke-opacity:1"
       d="m 2.1418461,281.67612 c 0.015728,0.0786 0.047225,0.23613 0.1575828,0.55933 0.1103577,0.3232 0.2990983,0.81078 1.5358502,1.31492 1.2367519,0.50414 3.5196996,1.02371 6.6221109,1.4489 3.102411,0.4252 7.024247,0.75596 9.937759,0.97644 2.913512,0.22048 4.819259,0.33073 7.394022,0.32285 2.574764,-0.008 5.819484,-0.13389 7.961969,-0.35224 2.142485,-0.21836 3.212217,-0.53768 4.149111,-1.26207 0.936893,-0.72439 1.756089,-1.85865 2.472602,-2.77987 0.716514,-0.92122 1.330886,-1.63011 1.724486,-2.40165 0.393599,-0.77155 0.566907,-1.60658 0.55901,-2.3466 -0.0079,-0.74002 -0.196955,-1.38597 -0.362299,-1.96861 -0.165344,-0.58264 -0.307125,-1.1025 -0.433098,-1.55128 -0.125974,-0.44878 -0.236256,-0.82689 -0.291352,-1.18908 -0.0551,-0.3622 -0.0551,-0.70883 0.02765,-0.96469 0.08275,-0.25586 0.263994,-0.4371 0.279691,-0.67303 0.0157,-0.23593 -0.126259,-0.53562 -0.370168,-0.71665 -0.243909,-0.18102 -0.590525,-0.24405 -0.8662,-0.11813 -0.275676,0.12592 -0.480289,0.44071 -0.574878,0.83469 -0.09459,0.39398 -0.07885,0.86599 0.01566,1.28351 0.09452,0.41751 0.267661,0.77954 0.448807,1.25208 0.181145,0.47254 0.370074,1.05507 0.472468,1.66145 0.102395,0.60638 0.11814,1.23616 -0.622206,1.77967 -0.740347,0.54352 -2.235893,1.00005 -3.724344,1.29933 -1.488451,0.29928 -2.968546,0.44099 -6.528382,0.4725 -3.559835,0.0315 -9.196885,-0.0472 -12.669577,-0.11809 -3.472692,-0.0709 -4.779797,-0.13386 -6.016208,-0.19686 -1.23641,-0.063 -2.401612,-0.12599 -3.110489,-0.34655 -0.7088778,-0.22057 -0.9608052,-0.59846 -1.1340303,-1.22843 -0.1732251,-0.62998 -0.2677349,-1.51207 -0.5825357,-2.01588 -0.3148009,-0.50381 -0.8504104,-0.62984 -1.2284714,-0.34641 -0.3780609,0.28343 -0.5984666,0.97613 -0.6221252,1.62205 -0.023659,0.64592 0.1494985,1.2441 0.3527747,1.78446 0.2032762,0.54036 0.442428,1.03461 0.4975875,1.66456 0.05516,0.62995 -0.070805,1.40148 -0.2439544,1.85041 -0.1731497,0.44893 -0.3935486,0.57488 -0.8429454,0.54336 -0.4493967,-0.0315 -1.1256413,-0.22023 -1.8974009,-0.27538 -0.7717596,-0.0552 -1.6377283,0.0236 -2.0709693,0.063 -0.4332409,0.0394 -0.4332429,0.0394 -0.4175145,0.11803 z"
       id="path878"
       inkscape:connector-curvature="0"
       inkscape:path-effect="#path-effect880"
       inkscape:original-d="m 2.1261177,281.59747 c 0.03176,0.15723 0.06326,0.31472 0.09449,0.47247 0.189497,0.48859 0.37824,0.97617 0.566964,1.46466 2.28453,0.5196 4.567477,1.03917 6.850818,1.55915 3.9214353,0.33044 7.8432713,0.66119 11.7645093,0.99219 1.905778,0.10997 3.811525,0.22022 5.71689,0.33073 3.244136,-0.12624 6.488856,-0.25225 9.732885,-0.37798 1.039611,-0.31522 2.110631,-0.63023 3.165552,-0.94494 0.818967,-1.13385 1.638162,-2.26812 2.456844,-3.40178 0.614315,-0.70879 1.228688,-1.41768 1.842635,-2.12612 0.173434,-0.83463 0.346742,-1.66966 0.519716,-2.50409 -0.188654,-0.64574 -0.377712,-1.29169 -0.566963,-1.93713 -0.141438,-0.51984 -0.283218,-1.0397 -0.425225,-1.55915 -0.10994,-0.37811 -0.220221,-0.75622 -0.330729,-1.13393 2.64e-4,-0.34659 2.64e-4,-0.69322 0,-1.03944 0.173373,-0.15763 0.346744,-0.34674 0.519718,-0.51971 -0.141261,-0.29904 -0.283218,-0.59873 -0.425222,-0.8977 -0.346083,-0.0632 -0.692693,-0.12625 -1.039434,-0.18899 -0.204597,0.31491 -0.40921,0.6297 -0.614212,0.94494 0.01603,0.47267 0.03176,0.94468 0.04725,1.41742 0.173598,0.36215 0.346741,0.72418 0.519715,1.08668 0.189312,0.58263 0.378243,1.16516 0.566965,1.74814 0.01601,0.62987 0.03176,1.25965 0.04725,1.88988 -1.496502,0.45664 -2.992046,0.91318 -4.488466,1.37016 -1.480454,0.14151 -2.960549,0.28322 -4.44122,0.42522 -5.638975,-0.079 -11.276024,-0.15775 -16.914434,-0.23623 -1.306963,-0.0633 -2.61407,-0.12626 -3.921503,-0.18899 -1.165385,-0.0633 -2.330588,-0.12626 -3.4962803,-0.18899 -0.251773,-0.37832 -0.503703,-0.75621 -0.755952,-1.13393 -0.09421,-0.88206 -0.188723,-1.76415 -0.283482,-2.64583 -0.53506,-0.12622 -1.070668,-0.25225 -1.606399,-0.37797 -0.2203,0.69294 -0.440708,1.38564 -0.661458,2.07886 0.173583,0.59848 0.346742,1.19666 0.519717,1.79539 0.220815,0.4881 0.472735,0.97617 0.708705,1.46466 -0.125756,0.77161 -0.251719,1.54314 -0.377976,2.3151 -0.220307,0.12578 -0.440708,0.25172 -0.661458,0.37798 -0.677906,-0.18952 -1.35415,-0.37824 -2.031622,-0.56696 -0.866157,0.0785 -1.732126,0.15722 -2.598586,0.23623 z" />
    <path
       style="fill:#000000;fill-opacity:1;stroke:#000000;stroke-width:1;stroke-linecap:butt;stroke-linejoin:miter;stroke-miterlimit:4;stroke-dasharray:none;stroke-opacity:1"
       d="m 27.686758,278.62091 -0.472471,-7.08706 -0.897693,-0.0472 0.425224,7.22879 z"
       id="path882"
       inkscape:connector-curvature="0" />
    <path
       style="fill:none;stroke:#000000;stroke-width:1.5;stroke-linecap:butt;stroke-linejoin:miter;stroke-miterlimit:4;stroke-dasharray:none;stroke-opacity:1"
       d="m 39.553697,277.75474 c -0.03931,-0.0157 -0.118056,-0.0472 -0.930521,-0.70983 -0.812465,-0.66259 -2.353182,-1.95177 -4.014649,-2.88095 -1.661467,-0.92918 -3.441075,-1.49613 -4.693144,-1.87412 -1.25207,-0.37799 -1.976459,-0.56696 -2.488306,-0.66934 -0.511848,-0.10238 -0.811,-0.11811 -1.677813,-0.24419 -0.866812,-0.12608 -2.298774,-0.36213 -3.629622,-0.43303 -1.330848,-0.0709 -2.55909,0.0236 -3.5356,0.29915 -0.976511,0.27558 -1.700794,0.73219 -1.968663,1.39383 -0.267869,0.66165 -0.07896,1.52747 0.499622,2.4057 0.578584,0.87822 1.563337,1.78356 2.169677,2.33478 0.60634,0.55122 0.842575,0.75595 0.803345,0.86619 -0.03923,0.11023 -0.354234,0.126 -0.976833,-0.1577 -0.622599,-0.2837 -1.550973,-0.8659 -2.488132,-1.9212 -0.93716,-1.0553 -1.882029,-2.58284 -2.52773,-4.14202 -0.6457,-1.55917 -0.992194,-3.14989 -1.078783,-4.5909 -0.08659,-1.441 0.08667,-2.73258 0.480386,-3.99237 0.393715,-1.25979 1.008065,-2.48849 1.409664,-3.24441 0.401599,-0.75591 0.590634,-1.03946 5.357589,-1.70809 4.766956,-0.66863 14.131941,-1.72495 18.801382,-2.07156 4.669441,-0.3466 4.65369,0.0156 4.228284,0.2284 -0.425406,0.21276 -1.259467,0.27571 -2.157372,1.10266 -0.897906,0.82695 -1.858269,2.41706 -2.590686,3.95273 -0.732417,1.53567 -1.236288,3.01579 -1.519823,4.37823 -0.283535,1.36244 -0.346517,2.60635 -0.259898,3.85069 0.08662,1.24435 0.322801,2.48824 0.700815,3.59868 0.378014,1.11045 0.897641,2.08672 1.27563,2.77183 0.37799,0.68511 0.614205,1.0788 0.732346,1.2757 0.118142,0.1969 0.118145,0.19686 0.07883,0.18114 z"
       id="path884"
       inkscape:connector-curvature="0"
       inkscape:path-effect="#path-effect886"
       inkscape:original-d="m 39.593007,277.77046 c -0.07848,-0.0318 -0.157226,-0.0633 -0.236236,-0.0945 -1.54582,-1.29393 -3.08654,-2.5831 -4.630207,-3.87426 -1.779402,-0.56724 -3.559011,-1.13419 -5.338913,-1.70089 -0.724257,-0.18927 -1.448644,-0.37825 -2.173364,-0.56697 -0.299043,-0.016 -0.598197,-0.0317 -0.897693,-0.0472 -1.434093,-0.23671 -2.866055,-0.47276 -4.299479,-0.70875 -1.228343,0.0942 -2.456581,0.18873 -3.685268,0.28348 -0.724357,0.45657 -1.448644,0.91318 -2.173363,1.37017 0.189333,0.8663 0.378241,1.73212 0.566964,2.59858 0.961173,0.89764 1.953142,1.79513 2.929316,2.69309 0.236496,0.20447 0.472734,0.4092 0.708705,0.6142 -0.314689,0.0155 -0.629696,0.0312 -0.94494,0.0473 -0.929745,-0.58349 -1.858119,-1.16569 -2.787575,-1.74814 -0.944748,-1.52803 -1.889616,-3.05557 -2.834821,-4.58296 -0.346197,-1.59084 -0.692692,-3.18156 -1.039435,-4.77195 0.173482,-1.29152 0.346743,-2.5831 0.519717,-3.87425 0.614336,-1.22841 1.228688,-2.45711 1.842634,-3.68527 0.189204,-0.28368 0.378241,-0.56723 0.566965,-0.85045 9.3451,-1.05431 18.710085,-2.11063 28.06473,-3.16555 -0.01548,0.36195 -0.03123,0.72419 -0.04725,1.08668 -0.835067,0.0628 -1.669129,0.12573 -2.504093,0.18899 -0.96075,1.59093 -1.921113,3.18104 -2.882067,4.77195 -0.503803,1.48043 -1.007673,2.96055 -1.511906,4.44122 -0.06274,1.24417 -0.125726,2.48808 -0.188985,3.73252 0.236549,1.24418 0.472732,2.48807 0.708704,3.73251 0.520067,0.97634 1.039698,1.95261 1.55915,2.92932 0.236524,0.39349 0.472736,0.78718 0.708707,1.18117 z" />
    <path
       style="fill:#000000;fill-opacity:1;stroke:#000000;stroke-width:1;stroke-linecap:butt;stroke-linejoin:miter;stroke-miterlimit:4;stroke-dasharray:none;stroke-opacity:1"
       d="m 26.847588,257.59598 v -1.27567 l 0.413945,-2.74032 -1.793766,-0.0473 0.551928,2.45684 v 1.84264"
       id="path888"
       inkscape:connector-curvature="0" />
    <path
       style="fill:none;stroke:#000000;stroke-width:1;stroke-linecap:butt;stroke-linejoin:miter;stroke-miterlimit:4;stroke-dasharray:none;stroke-opacity:1"
       d="m 18.311121,258.67309 c -0.407657,1.93998 -0.815382,3.88029 -0.846769,5.99105 -0.03139,2.11076 0.313552,4.39107 0.658588,6.67203"
       id="path890"
       inkscape:connector-curvature="0"
       inkscape:path-effect="#path-effect892"
       inkscape:original-d="m 18.311121,258.67309 c -0.407463,1.94002 -0.815188,3.88033 -1.223178,5.82093 0.345321,2.28083 0.690261,4.56114 1.034997,6.84215" />
    <path
       style="fill:none;stroke:#000000;stroke-width:1;stroke-linecap:butt;stroke-linejoin:miter;stroke-miterlimit:4;stroke-dasharray:none;stroke-opacity:1"
       d="m 22.861569,258.13463 c -0.243601,1.70019 -0.487239,3.40064 -0.598487,4.80288 -0.111249,1.40223 -0.09007,2.50584 0.15889,3.78884 0.248959,1.28299 0.725545,2.74448 1.202287,4.20644"
       id="path894"
       inkscape:connector-curvature="0"
       inkscape:path-effect="#path-effect896"
       inkscape:original-d="m 22.861569,258.13463 c -0.243462,1.70021 -0.487101,3.40066 -0.730918,5.10138 0.02137,1.10373 0.04255,2.20734 0.06355,3.3114 0.476969,1.46185 0.953549,2.92334 1.430058,4.38538" />
    <path
       style="fill:none;stroke:#000000;stroke-width:1;stroke-linecap:butt;stroke-linejoin:miter;stroke-miterlimit:4;stroke-dasharray:none;stroke-opacity:1"
       d="m 34.300363,256.99674 c -0.818201,2.57782 -1.636512,5.15599 -2.077191,7.06393 -0.44068,1.90794 -0.50362,3.14531 -0.34624,4.55494 0.15738,1.40963 0.534971,2.99053 0.912702,4.57201"
       id="path898"
       inkscape:connector-curvature="0"
       inkscape:path-effect="#path-effect900"
       inkscape:original-d="m 34.300363,256.99674 c -0.818047,2.57787 -1.636358,5.15604 -2.454931,7.7345 -0.06269,1.23738 -0.125629,2.47475 -0.188842,3.71255 0.378039,1.58137 0.755627,3.16227 1.133044,4.74383" />
    <path
       style="fill:none;stroke:#000000;stroke-width:1;stroke-linecap:butt;stroke-linejoin:miter;stroke-miterlimit:4;stroke-dasharray:none;stroke-opacity:1"
       d="m 27.214287,271.53385 c -0.25201,-2.22084 -0.503994,-4.44145 -0.330735,-6.78009 0.173258,-2.33864 0.771782,-4.79574 1.370169,-7.25227"
       id="path902"
       inkscape:connector-curvature="0"
       inkscape:path-effect="#path-effect904"
       inkscape:original-d="m 27.214287,271.53385 c -0.25172,-2.22087 -0.503704,-4.44148 -0.755952,-6.66183 0.598665,-2.45685 1.197189,-4.91395 1.795386,-7.37053" />
    <ellipse
       style="fill:none;fill-opacity:1;stroke:#000000;stroke-width:0.89685178;stroke-linecap:round;stroke-linejoin:miter;stroke-miterlimit:4;stroke-dasharray:none;stroke-opacity:1"
       id="path906"
       cx="12.189733"
       cy="280.6998"
       rx="2.6974072"
       ry="1.1382557" />
  </g>
</svg>
